<?xml version="1.0" encoding="utf-8"?>
<!-- Generator: Adobe Illustrator 23.0.1, SVG Export Plug-In . SVG Version: 6.00 Build 0)  -->
<svg version="1.1" id="Layer_1" xmlns="http://www.w3.org/2000/svg" xmlns:xlink="http://www.w3.org/1999/xlink" x="0px" y="0px"
	 viewBox="0 0 100 100" style="enable-background:new 0 0 100 100;" xml:space="preserve">
<path d="M89.4,85.6c-7.1-10.4-8.9-22.4-9.3-26.8c3.9-1,6.9-4.5,6.9-8.7v-3c0-1-0.7-1.8-1.6-2C68.2,41.6,54.6,27.2,52,24.2V19V7
	c0-0.7-0.3-1.3-0.9-1.7c-0.6-0.4-1.3-0.4-1.9-0.2l-14,6c-0.7,0.3-1.2,1-1.2,1.8s0.5,1.5,1.2,1.8L48,20.3v3.9
	C45.4,27.2,31.8,41.6,14.6,45c-0.9,0.2-1.6,1-1.6,2v3c0,4.2,2.9,7.8,6.9,8.7c-0.4,4.4-2.1,16.4-9.3,26.8c-1.3,1.9-1.4,4.3-0.4,6.3
	c1,2,3.1,3.2,5.3,3.2H37h26h21.5c2.2,0,4.3-1.2,5.3-3.2C90.8,89.8,90.7,87.4,89.4,85.6z M83,50c0,2.8-2.2,5-5,5s-5-2.2-5-5v-1h10V50
	z M31,49h10v1c0,2.8-2.2,5-5,5s-5-2.2-5-5V49z M45,49h10v1c0,2.8-2.2,5-5,5s-5-2.2-5-5V49z M59,49h10v1c0,2.8-2.2,5-5,5s-5-2.2-5-5
	V49z M48,10V16l-6.9-3L48,10z M50,28c3.3,3.6,11.7,11.7,22.9,17H27.1C38.3,39.7,46.7,31.6,50,28z M17,50v-1h10v1c0,2.8-2.2,5-5,5
	S17,52.8,17,50z M39,91V76.3l11-5.1l11,5.1V91H39z M86.3,90c-0.2,0.3-0.7,1-1.7,1H65V75c0-0.8-0.5-1.5-1.2-1.8l-13-6
	c-0.5-0.2-1.1-0.2-1.7,0l-13,6c-0.7,0.3-1.2,1-1.2,1.8v16H15.5c-1.1,0-1.6-0.7-1.7-1c-0.4-0.7-0.3-1.5,0.1-2.1
	c7.9-11.5,9.6-24.4,10-29c2-0.4,3.8-1.6,5.1-3.2c1.7,2,4.2,3.4,7,3.4s5.3-1.3,7-3.4c1.7,2,4.2,3.4,7,3.4c2.8,0,5.3-1.3,7-3.4
	c1.7,2,4.2,3.4,7,3.4s5.3-1.3,7-3.4c1.3,1.6,3.1,2.7,5.1,3.2c0.4,4.6,2.1,17.5,10,29C86.6,88.5,86.6,89.3,86.3,90z"/>
</svg>
